<svg xmlns="http://www.w3.org/2000/svg">

<symbol id="arrow" width="13" height="20" viewBox="0 0 13 20" >
	<path fill-rule="evenodd" clip-rule="evenodd" d="M0.948279 19.4956C1.56722 20.1455 2.59581 20.1706 3.24569 19.5517L11.7769 11.4267C12.099 11.12 12.2813 10.6947 12.2813 10.2499C12.2813 9.80521 12.099 9.37992 11.7769 9.07321L3.24569 0.948213C2.5958 0.329275 1.56722 0.354362 0.948277 1.00425C0.329337 1.65414 0.354425 2.68272 1.00431 3.30166L8.3 10.2499L1.00431 17.1982C0.354426 17.8172 0.329339 18.8457 0.948279 19.4956Z" />
</symbol>

<symbol id="arrow-down" width="12" height="8" viewBox="0 0 12 8">
	<path fill-rule="evenodd" clip-rule="evenodd" d="M11.6897 0.650864C12.0896 1.03175 12.105 1.66473 11.7241 2.06466L6.72414 7.31466C6.53539 7.51284 6.27368 7.625 6 7.625C5.72632 7.625 5.4646 7.51284 5.27586 7.31466L0.275861 2.06466C-0.105025 1.66473 -0.0895863 1.03175 0.310344 0.650863C0.710275 0.269977 1.34325 0.285416 1.72414 0.685346L6 5.175L10.2759 0.685347C10.6567 0.285416 11.2897 0.269978 11.6897 0.650864Z" />
</symbol>

<symbol id="close" width="12" height="12" viewBox="0 0 12 12" >
	<path d="M1 1L11 11"  stroke-linecap="round"/>
	<path d="M11 1L0.999999 11"  stroke-linecap="round"/>
</symbol>

<symbol id="icon-yt" viewBox="0 0 24 18" >
	<path d="M23.7955 5.1191C23.648 3.69625 23.3308 2.12333 22.1633 1.29674C21.2591 0.655726 20.0705 0.632029 18.9609 0.633345C16.6154 0.634661 14.2685 0.637299 11.923 0.638615C9.66693 0.641248 7.41089 0.64257 5.15485 0.645203C4.21242 0.646519 3.29632 0.572816 2.42102 0.98085C1.66944 1.33097 1.08108 1.99697 0.727014 2.73801C0.236056 3.76863 0.133395 4.93615 0.074164 6.07601C-0.0350841 8.15172 -0.0232379 10.2327 0.10707 12.3071C0.203156 13.8208 0.446656 15.4937 1.61679 16.4585C2.65399 17.3127 4.11765 17.3549 5.46285 17.3562C9.73273 17.3601 14.0039 17.3641 18.2752 17.3667C18.8227 17.368 19.394 17.3575 19.952 17.297C21.0498 17.1785 22.0962 16.8639 22.8017 16.0505C23.5138 15.2305 23.6967 14.0893 23.8047 13.0086C24.0679 10.3867 24.0653 7.73974 23.7955 5.1191ZM9.4537 12.6756V5.32444L15.8191 8.99937L9.4537 12.6756Z" />
</symbol>

<symbol id="icon-tg" viewBox="0 0 24 20">
	<path d="M0.630534 9.12309C0.685649 9.09553 0.74079 9.06934 0.794528 9.04454C1.72874 8.61189 2.67535 8.20678 3.62058 7.80168C3.67156 7.80168 3.75697 7.74243 3.80519 7.72313C3.87822 7.69144 3.95126 7.66114 4.02429 7.62945C4.16484 7.56882 4.30539 7.50956 4.44455 7.44894C4.72564 7.32906 5.00534 7.2092 5.28642 7.08933C5.84723 6.84957 6.40802 6.60982 6.96882 6.36869C8.09042 5.88919 9.21343 5.40828 10.335 4.92877C11.4566 4.44927 12.5796 3.96839 13.7012 3.48888C14.8228 3.00938 15.9458 2.5285 17.0674 2.049C18.189 1.56949 19.312 1.08862 20.4336 0.609111C20.683 0.501635 20.953 0.341796 21.2203 0.294948C21.4449 0.254989 21.664 0.177839 21.89 0.135125C22.3185 0.0538294 22.7911 0.0207547 23.2017 0.198502C23.3437 0.260507 23.4746 0.347297 23.5834 0.45615C24.1043 0.971481 24.0312 1.81752 23.921 2.54229C23.1535 7.59363 22.386 12.6464 21.6172 17.6977C21.5124 18.3908 21.3691 19.1514 20.8221 19.5895C20.3591 19.9602 19.7005 20.0015 19.1287 19.8444C18.5569 19.686 18.0526 19.3539 17.5579 19.0273C15.5062 17.6687 13.4532 16.3101 11.4015 14.9515C10.9137 14.6291 10.3709 14.2075 10.3764 13.6219C10.3791 13.2691 10.5899 12.955 10.8049 12.6753C12.5879 10.3494 15.1604 8.75105 17.0743 6.53265C17.3443 6.21987 17.5565 5.65495 17.1859 5.47444C16.9654 5.36697 16.7119 5.513 16.5107 5.65216C13.9809 7.40897 11.4525 9.16716 8.92269 10.924C8.09734 11.4972 7.23202 12.0869 6.23719 12.2274C5.34707 12.3542 4.45145 12.1062 3.59027 11.8527C2.86826 11.6405 2.1476 11.4228 1.42972 11.1982C1.04804 11.0797 0.653962 10.9515 0.359093 10.6828C0.0642253 10.4141 -0.105232 9.96222 0.0725155 9.60397C0.184124 9.37938 0.400457 9.23746 0.627809 9.12171L0.630534 9.12309Z" />
</symbol>

<symbol id="icon-search" width="20" height="20" viewBox="0 0 20 20">
	<path d="M11.457 0.0117188C16.1531 0.249987 19.8877 4.13339 19.8877 8.88867L19.876 9.3457C19.6379 14.0417 15.755 17.776 11 17.7764L10.542 17.7646C8.62534 17.6675 6.86966 16.9618 5.46191 15.8389L1.70703 19.5947C1.31654 19.9851 0.683463 19.9851 0.292969 19.5947C-0.0975157 19.2042 -0.0974361 18.5712 0.292969 18.1807L4.04785 14.4248C2.92524 13.0172 2.22021 11.262 2.12305 9.3457L2.11133 8.88867C2.11133 3.97985 6.09118 0 11 0L11.457 0.0117188ZM11 2C7.19575 2 4.11133 5.08442 4.11133 8.88867C4.11145 10.7094 4.81875 12.3642 5.97266 13.5957C6.0359 13.6352 6.09638 13.6813 6.15137 13.7363C6.20601 13.791 6.25167 13.8512 6.29102 13.9141C7.52288 15.0685 9.17863 15.7764 11 15.7764C14.8037 15.7759 17.8874 12.6925 17.8877 8.88867C17.8877 5.08468 14.8039 2.00042 11 2Z" />
</symbol>

<symbol id="menu" x="0px" y="0px" width="100" height="100" viewBox="0 0 50 50">
	<path d="M 3 9 A 1.0001 1.0001 0 1 0 3 11 L 47 11 A 1.0001 1.0001 0 1 0 47 9 L 3 9 z M 3 24 A 1.0001 1.0001 0 1 0 3 26 L 47 26 A 1.0001 1.0001 0 1 0 47 24 L 3 24 z M 3 39 A 1.0001 1.0001 0 1 0 3 41 L 47 41 A 1.0001 1.0001 0 1 0 47 39 L 3 39 z"></path>
</symbol>


<symbol id="menu-ellipsis"  viewBox="0 0 4 17">
	<path d="M2 4.79809C3.1 4.79809 4 3.90242 4 2.80771C4 1.713 3.1 0.817322 2 0.817322C0.9 0.817322 0 1.713 0 2.80771C0 3.90242 0.9 4.79809 2 4.79809Z" />
	<path d="M2 6.78848C0.9 6.78848 0 7.68415 0 8.77886C0 9.87357 0.9 10.7692 2 10.7692C3.1 10.7692 4 9.87357 4 8.77886C4 7.68415 3.1 6.78848 2 6.78848Z" />
	<path d="M0 14.75C0 13.6553 0.9 12.7596 2 12.7596C3.1 12.7596 4 13.6553 4 14.75C4 15.8447 3.1 16.7404 2 16.7404C0.9 16.7404 0 15.8447 0 14.75Z" />
</symbol>


<symbol id="star" viewBox="0 0 16 16">
	<g clip-path="url(#clip0_1_468)">
	<path d="M7.68334 1.53C7.71255 1.47097 7.75769 1.42129 7.81364 1.38655C7.86959 1.35181 7.93414 1.3334 8.00001 1.3334C8.06587 1.3334 8.13042 1.35181 8.18637 1.38655C8.24232 1.42129 8.28746 1.47097 8.31667 1.53L9.85667 4.64933C9.95812 4.85465 10.1079 5.03227 10.2931 5.16697C10.4783 5.30167 10.6934 5.38941 10.92 5.42267L14.364 5.92667C14.4293 5.93612 14.4906 5.96365 14.541 6.00613C14.5914 6.04862 14.629 6.10437 14.6494 6.16707C14.6697 6.22978 14.6722 6.29694 14.6564 6.36096C14.6406 6.42498 14.6072 6.4833 14.56 6.52933L12.0693 8.95467C11.9051 9.11474 11.7822 9.31232 11.7112 9.53042C11.6403 9.74852 11.6234 9.98059 11.662 10.2067L12.25 13.6333C12.2615 13.6986 12.2545 13.7657 12.2297 13.8271C12.2049 13.8885 12.1633 13.9417 12.1097 13.9807C12.0561 14.0196 11.9927 14.0427 11.9266 14.0473C11.8605 14.0519 11.7945 14.0378 11.736 14.0067L8.65734 12.388C8.45448 12.2815 8.22879 12.2258 7.99967 12.2258C7.77055 12.2258 7.54486 12.2815 7.342 12.388L4.264 14.0067C4.20556 14.0376 4.1396 14.0515 4.07364 14.0468C4.00767 14.0421 3.94435 14.019 3.89087 13.9801C3.83739 13.9412 3.79589 13.8881 3.77111 13.8268C3.74632 13.7655 3.73924 13.6985 3.75067 13.6333L4.338 10.2073C4.3768 9.98116 4.35999 9.74893 4.28903 9.5307C4.21807 9.31246 4.09508 9.11477 3.93067 8.95467L1.44 6.53C1.3924 6.48402 1.35867 6.4256 1.34265 6.36138C1.32663 6.29717 1.32896 6.22975 1.34939 6.16679C1.36982 6.10384 1.40752 6.04789 1.45819 6.00532C1.50886 5.96275 1.57047 5.93527 1.636 5.926L5.07934 5.42267C5.30618 5.38967 5.5216 5.30204 5.70706 5.16733C5.89252 5.03261 6.04247 4.85485 6.144 4.64933L7.68334 1.53Z" stroke-width="2" stroke-linecap="round" stroke-linejoin="round"/>
	</g>
	<defs>
	<clipPath id="clip0_1_468">
	<rect width="16" height="16" fill="white"/>
	</clipPath>
	</defs>
</symbol>

<symbol id="chat" width="16" height="16" viewBox="0 0 16 16">
	<path d="M14.543 7.75537C15.0442 8.39863 15.3329 9.1486 15.333 9.95068C15.333 10.5728 15.1602 11.1645 14.8486 11.6987C14.6967 11.9591 14.8711 12.8508 15.0518 13.5767C15.1537 13.9863 14.7423 14.364 14.3438 14.2251C13.5729 13.9566 12.5805 13.6614 12.2529 13.7896C11.4777 14.0927 10.5985 14.2631 9.66699 14.2632C7.97345 14.2632 6.4544 13.6966 5.41602 12.8003C5.9271 12.8885 6.457 12.936 7 12.936C10.7681 12.9359 13.899 10.7008 14.543 7.75537Z"/>
	<path d="M13.3337 6.63465C13.3337 9.3828 10.4981 11.6106 7.00033 11.6106C6.04768 11.6106 5.14415 11.4454 4.33366 11.1493C3.95204 11.01 2.63467 11.3481 1.68826 11.6253C1.28107 11.7445 0.893237 11.3381 1.02305 10.9342C1.2726 10.1576 1.52942 9.16653 1.33366 8.85933C0.90706 8.18987 0.666992 7.43429 0.666992 6.63465C0.666992 3.88651 3.50252 1.65869 7.00033 1.65869C10.4981 1.65869 13.3337 3.88651 13.3337 6.63465Z"/>
</symbol>

<symbol id="gift" viewBox="0 0 16 16">
	<path d="M7.26953 8.77063V14.7081H3.05273C2.27048 14.708 1.63673 14.0734 1.63672 13.2911V8.77063H7.26953ZM14.3643 13.2911C14.3642 14.0735 13.7297 14.7081 12.9473 14.7081H8.54395V8.77063H14.3643V13.2911ZM9.32031 1.34876C10.3583 0.687434 11.7361 0.99248 12.3975 2.0304C13.0587 3.06844 12.7528 4.44621 11.7148 5.10755C11.6855 5.12624 11.6538 5.14294 11.6221 5.16126H14.292C14.6832 5.16126 15 5.47904 15 5.87024V7.00696C15 7.20428 14.9084 7.37843 14.7676 7.49524H8.54395V5.03821H7.26953V7.49524H1.23242C1.09152 7.37842 1.00001 7.20415 1 7.00696V5.87024C1 5.47915 1.31696 5.16143 1.70801 5.16126H4.38086C4.3489 5.14283 4.31663 5.12635 4.28711 5.10755C3.2495 4.44613 2.94443 3.06828 3.60547 2.0304C4.26673 0.99274 5.64377 0.687804 6.68164 1.34876C7.11039 1.62193 7.61867 2.15363 8.00098 2.71497C8.38324 2.15362 8.89154 1.62203 9.32031 1.34876ZM5.99707 2.42395C5.55301 2.14115 4.96358 2.27182 4.68066 2.71595C4.39792 3.16008 4.52875 3.7494 4.97266 4.03235C5.24115 4.20337 5.84233 4.41638 6.44434 4.49134C6.73919 4.52802 6.99034 4.52475 7.1709 4.48938C7.36149 4.45196 7.37828 4.39986 7.3623 4.42493C7.3471 4.4491 7.38714 4.41114 7.34082 4.22376C7.29662 4.04507 7.19217 3.81654 7.03418 3.56458C6.71182 3.05052 6.26554 2.59505 5.99707 2.42395ZM11.3223 2.71595C11.0394 2.27194 10.4499 2.14128 10.0059 2.42395C9.73735 2.59511 9.29011 3.05051 8.96777 3.56458C8.80987 3.81646 8.70629 4.04512 8.66211 4.22376C8.61558 4.41197 8.6554 4.44974 8.63965 4.42493C8.62379 4.40011 8.64106 4.45202 8.83105 4.48938C9.01154 4.52482 9.26274 4.52798 9.55762 4.49134C10.1597 4.41643 10.7617 4.20339 11.0303 4.03235C11.474 3.74939 11.6049 3.16003 11.3223 2.71595Z" fill="#262F56"/>
</symbol>

<symbol id="check" width="10" height="10" viewBox="0 0 10 10" >
	<path d="M8.33268 2.5L3.74935 7.08333L1.66602 5" stroke="#262F56" stroke-width="2" stroke-linecap="round" stroke-linejoin="round"/>
</symbol>

<symbol id="check-circle" viewBox="0 0 16 16">
	<rect width="16" height="16" rx="8" fill="#00C659"/>
	<path d="M11.3327 5.5L6.74935 10.0833L4.66602 8" stroke="white" stroke-width="2" stroke-linecap="round" stroke-linejoin="round" fill="#00C659"/>
</symbol>

<symbol id="dart" width="16" height="12" viewBox="0 0 16 12">
<path d="M0 7L12.17 7L8.59 10.59L10 12L16 6L10 0L8.59 1.41L12.17 5L1.74846e-07 5L0 7Z" fill="#262F56"/>
</symbol>


</svg>
